IKResults
version=1
nRows=7
nColumns=67
inDegrees=yes

Units are S.I. units (second, meters, Newtons, ...)
Angles are in degrees.

endheader
time	pelvis_tilt	pelvis_list	pelvis_rotation	pelvis_tx	pelvis_ty	pelvis_tz	hip_flexion_r	hip_adduction_r	hip_rotation_r	knee_angle_r	knee_rot_r	knee_adduc_r	ankle_angle_r	ankle_rot_r	ankle_add_r	subtalar_angle_r	mtp_angle_r	mtp_rot_r	mtp_add_r	hip_flexion_l	hip_adduction_l	hip_rotation_l	knee_angle_l	knee_rot_l	knee_adduc_l	ankle_angle_l	ankle_rot_l	ankle_add_l	subtalar_angle_l	mtp_angle_l	mtp_rot_l	mtp_add_l	lumbar_extension	lumbar_bending	lumbar_rotation	neck_flexion	neck_lateral_bending	neck_rotation	arm_flex_r	arm_add_r	arm_rot_r	elbow_flex_r	elbow_rot_r	elbow_add_r	pro_sup_r	wrist_flex_r	wrist_adduc_r	wrist_rot_r	wrist_dev_r	hand_finger_flex_r	hand_finger_adduc_r	hand_finger_rot_r	arm_flex_l	arm_add_l	arm_rot_l	elbow_flex_l	elbow_rot_l	elbow_add_l	pro_sup_l	wrist_flex_l	wrist_adduc_l	wrist_rot_l	wrist_dev_l	hand_finger_flex_l	hand_finger_adduc_l	hand_finger_rot_l
      0.75000000	     14.03546746	      1.62195395	     12.69738268	     -1.39810391	      0.74470540	      0.79821148	      7.28305401	      5.14280010	     -0.33269645	    -23.91359315	     -5.00000000	     -0.03541645	      1.61096636	     -5.00000000	      5.00000000	    -12.77285457	     11.10135057	     -2.00000000	     -0.37130382	    -18.42360627	     -1.11387615	      7.17459131	    -50.84553115	      5.00000000	      0.34738221	     -7.16591958	     -1.39058172	      5.00000000	     -5.27027770	     35.12214653	      0.91203421	     -2.00000000	    -27.59174747	      3.01754955	    -10.06536124	      0.00000000	      0.00000000	      0.00000000	      0.00000000	      0.00000000	      0.00000000	      0.00000000	      0.00000000	      0.00000000	     -0.00042092	      0.00000000	      0.00000000	      0.00000000	      0.00000000	      0.00000000	      0.00000000	      0.00000000	      0.00000000	      0.00000000	      0.00000000	      0.00000000	      0.00000000	      0.00000000	      0.00000000	      0.00000000	      0.00000000	      0.00000000	      0.00000000	      0.00000000	      0.00000000	      0.00000000
      0.75500000	     14.10547457	      1.78540804	     12.81201602	     -1.39198574	      0.74626663	      0.79806923	      6.32173734	      5.46432063	     -0.04984994	    -23.35768871	     -5.00000000	     -0.52237078	      1.91132788	     -5.00000000	      5.00000000	    -12.91714806	     11.07116557	     -2.00000000	     -0.37408410	    -17.31752196	     -0.88058386	      6.88248064	    -52.30257372	      5.00000000	      0.67372881	     -7.00445127	     -0.54997697	      5.00000000	     -5.84908173	     35.08065725	      0.99145658	     -1.99810494	    -27.68088757	      2.79097366	     -9.65874834	      0.00000000	      0.00000000	      0.00000000	      0.00000000	      0.00000000	      0.00000000	      0.00000000	      0.00000000	      0.00000000	     -0.00042092	      0.00000000	      0.00000000	      0.00000000	      0.00000000	      0.00000000	      0.00000000	      0.00000000	      0.00000000	      0.00000000	      0.00000000	      0.00000000	      0.00000000	      0.00000000	      0.00000000	      0.00000000	      0.00000000	      0.00000000	      0.00000000	      0.00000000	      0.00000000	      0.00000000
      0.76000000	     14.18379607	      2.01987450	     12.87297556	     -1.38601738	      0.74793075	      0.79825009	      5.34890072	      5.63126737	      0.15184451	    -22.79427952	     -5.00000000	     -0.84351424	      2.05467695	     -5.00000000	      5.00000000	    -12.96669617	     11.06097562	     -2.00000000	     -0.37509773	    -16.19080873	     -0.75365440	      6.55869734	    -53.66529332	      5.00000000	      0.76491870	     -6.88214668	     -0.09536385	      5.00000000	     -6.19574275	     35.06547425	      1.02229862	     -1.99850429	    -27.85051071	      2.39241400	     -9.37435817	      0.00000000	      0.00000000	      0.00000000	      0.00000000	      0.00000000	      0.00000000	      0.00000000	      0.00000000	      0.00000000	     -0.00042092	      0.00000000	      0.00000000	      0.00000000	      0.00000000	      0.00000000	      0.00000000	      0.00000000	      0.00000000	      0.00000000	      0.00000000	      0.00000000	      0.00000000	      0.00000000	      0.00000000	      0.00000000	      0.00000000	      0.00000000	      0.00000000	      0.00000000	      0.00000000	      0.00000000
      0.76500000	     14.10102325	      2.06340731	     12.92416376	     -1.37969616	      0.74953888	      0.79792624	      4.43728684	      5.97682304	      0.34652339	    -21.99877317	     -5.00000000	     -1.33908249	      2.33227117	     -5.00000000	      5.00000000	    -13.20050636	     11.02077576	     -2.00000000	     -0.37922136	    -14.99906111	     -0.57811491	      6.35168948	    -54.77574581	      5.00000000	      0.91845946	     -6.45406049	      0.72639160	      5.00000000	     -6.92438059	     34.99912989	      1.11071404	     -1.98964570	    -27.65438093	      2.30615013	     -8.57319376	      0.00000000	      0.00000000	      0.00000000	      0.00000000	      0.00000000	      0.00000000	      0.00000000	      0.00000000	      0.00000000	     -0.00042092	      0.00000000	      0.00000000	      0.00000000	      0.00000000	      0.00000000	      0.00000000	      0.00000000	      0.00000000	      0.00000000	      0.00000000	      0.00000000	      0.00000000	      0.00000000	      0.00000000	      0.00000000	      0.00000000	      0.00000000	      0.00000000	      0.00000000	      0.00000000	      0.00000000
      0.77000000	     14.13275201	      2.28685482	     12.91622145	     -1.37392298	      0.75120491	      0.79813553	      3.53920577	      6.04066560	      0.49095149	    -21.44329651	     -5.00000000	     -1.56702072	      2.43822934	     -5.00000000	      5.00000000	    -13.23326128	     11.00742000	     -2.00000000	     -0.38129295	    -13.81535651	     -0.46102839	      6.06880731	    -55.89843660	      5.00000000	      0.87358383	     -6.29895864	      1.00707945	      5.00000000	     -7.20809641	     34.97826904	      1.13931472	     -1.98704176	    -27.84886630	      1.94970393	     -8.25338825	      0.00000000	      0.00000000	      0.00000000	      0.00000000	      0.00000000	      0.00000000	      0.00000000	      0.00000000	      0.00000000	     -0.00042092	      0.00000000	      0.00000000	      0.00000000	      0.00000000	      0.00000000	      0.00000000	      0.00000000	      0.00000000	      0.00000000	      0.00000000	      0.00000000	      0.00000000	      0.00000000	      0.00000000	      0.00000000	      0.00000000	      0.00000000	      0.00000000	      0.00000000	      0.00000000	      0.00000000
      0.77500000	     13.26708775	      2.23088227	     12.93551523	     -1.36813345	      0.75196204	      0.79811231	      3.70440070	      6.15287569	      0.97123223	    -20.99049378	     -5.00000000	     -1.68056983	      2.61268277	     -5.00000000	      5.00000000	    -13.78841870	     10.47136834	     -2.00000000	     -0.47556887	    -11.56096514	     -0.35285738	      6.81857654	    -57.18092899	      5.00000000	     -0.07691973	     -5.99022095	      0.91332973	      5.00000000	     -9.19442780	     34.03474988	      1.85172953	     -1.73629176	    -26.84240749	      1.68067103	     -7.46101765	      0.00000000	      0.00000000	      0.00000000	      0.00000000	      0.00000000	      0.00000000	      0.00000000	      0.00000000	      0.00000000	     -0.00042092	      0.00000000	      0.00000000	      0.00000000	      0.00000000	      0.00000000	      0.00000000	      0.00000000	      0.00000000	      0.00000000	      0.00000000	      0.00000000	      0.00000000	      0.00000000	      0.00000000	      0.00000000	      0.00000000	      0.00000000	      0.00000000	      0.00000000	      0.00000000	      0.00000000
      0.78000000	     13.32066575	      2.44761646	     12.88485516	     -1.36241163	      0.75366500	      0.79824853	      2.76232064	      6.10284868	      1.04022063	    -20.40476476	     -5.00000000	     -1.77140284	      2.72109197	     -5.00000000	      5.00000000	    -13.77508097	     10.46038013	     -2.00000000	     -0.47757608	    -10.43956244	     -0.19782820	      6.55806216	    -58.03346077	      5.00000000	     -0.14779449	     -5.83262352	      1.07203139	      5.00000000	     -9.38071704	     34.01671735	      1.87189794	     -1.73295893	    -27.04201245	      1.34185280	     -7.17312572	      0.00000000	      0.00000000	      0.00000000	      0.00000000	      0.00000000	      0.00000000	      0.00000000	      0.00000000	      0.00000000	     -0.00042092	      0.00000000	      0.00000000	      0.00000000	      0.00000000	      0.00000000	      0.00000000	      0.00000000	      0.00000000	      0.00000000	      0.00000000	      0.00000000	      0.00000000	      0.00000000	      0.00000000	      0.00000000	      0.00000000	      0.00000000	      0.00000000	      0.00000000	      0.00000000	      0.00000000
